<svg width="110px" height="110px" viewBox="0 0 110 110" version="1.1" xmlns="http://www.w3.org/2000/svg" xmlns:xlink="http://www.w3.org/1999/xlink">
  <g stroke="none" stroke-width="1" fill="none" fill-rule="evenodd">
    <path d="M90,0 C101.045695,0 110,8.954305 110,20 L110,90 C110,101.045695 101.045695,110 90,110 L20,110 C8.954305,110 0,101.045695 0,90 L0,20 C0,8.954305 8.954305,0 20,0 L90,0 Z M27.008622,26.008622 C24.6654762,28.3517677 24.6654762,32.1507576 27.008622,34.4939033 L47.515,55 L27.008622,75.5060967 C24.7255569,77.7891617 24.6670168,81.4543694 26.8330016,83.8083136 L27.008622,83.991378 C29.3517677,86.3345238 33.1507576,86.3345238 35.4939033,83.991378 L35.4939033,83.991378 L56,63.485 L76.5060967,83.991378 C78.8492424,86.3345238 82.6482323,86.3345238 84.991378,83.991378 C87.3345238,81.6482323 87.3345238,77.8492424 84.991378,75.5060967 L64.485,55 L84.991378,34.4939033 C87.2744431,32.2108383 87.3329832,28.5456306 85.1669984,26.1916864 L84.991378,26.008622 C82.6482323,23.6654762 78.8492424,23.6654762 76.5060967,26.008622 L76.5060967,26.008622 L56,46.515 L35.4939033,26.008622 C33.1507576,23.6654762 29.3517677,23.6654762 27.008622,26.008622 Z" id="Rectangle-2-2" fill="#444444" fill-rule="nonzero"></path>
  </g>
</svg>