<svg width="110" height="110" viewBox="0 0 110 110" version="1.1" xmlns="http://www.w3.org/2000/svg" xmlns:xlink="http://www.w3.org/1999/xlink"><title>check-checked-active</title><desc>Created with Sketch.</desc><g id="Page-1" stroke="none" stroke-width="1" fill="none" fill-rule="evenodd"><g id="check-checked-active" fill="#000"><path d="M20,0 L90,0 C101.045695,-2.02906125e-15 110,8.954305 110,20 L110,90 C110,101.045695 101.045695,110 90,110 L20,110 C8.954305,110 1.3527075e-15,101.045695 0,90 L0,20 C-1.3527075e-15,8.954305 8.954305,2.02906125e-15 20,0 Z M25,15 C19.4771525,15 15,19.4771525 15,25 L15,85 C15,90.5228475 19.4771525,95 25,95 L85,95 C90.5228475,95 95,90.5228475 95,85 L95,25 C95,19.4771525 90.5228475,15 85,15 L25,15 Z" id="Rectangle-2"/><g id="Group" transform="translate(22.000000, 22.000000)"><rect id="Rectangle" transform="translate(33.000000, 33.000000) rotate(-45.000000) translate(-33.000000, -33.000000)" x="-7" y="27" width="80" height="12" rx="6"/><rect id="Rectangle" transform="translate(33.000000, 33.000000) scale(-1, 1) rotate(135.000000) translate(-33.000000, -33.000000)" x="-7" y="27" width="80" height="12" rx="6"/></g></g></g></svg>