<?xml version="1.0" encoding="UTF-8"?>
<svg width="60px" height="60px" viewBox="0 0 60 60" version="1.1" xmlns="http://www.w3.org/2000/svg" xmlns:xlink="http://www.w3.org/1999/xlink">
    <!-- Generator: Sketch 48.2 (47327) - http://www.bohemiancoding.com/sketch -->
    <title>fullscreen</title>
    <desc>Created with Sketch.</desc>
    <defs></defs>
    <g id="SVG-sprite" stroke="none" stroke-width="1" fill="none" fill-rule="evenodd" transform="translate(0.000000, -70.000000)">
        <g id="fullscreen" transform="translate(0.000000, 70.000000)">
            <path d="M30,60 C13.4314575,60 0,46.5685425 0,30 C0,13.4314575 13.4314575,0 30,0 C46.5685425,0 60,13.4314575 60,30 C60,46.5685425 46.5685425,60 30,60 Z" id="full" fill="#4A4A4A" fill-rule="nonzero"></path>
            <path d="M21.0797899,14.5945946 C20.9722696,14.5945946 20.8691533,14.6373068 20.793125,14.7133351 C20.6348043,14.8716558 20.6348043,15.1283442 20.793125,15.2866649 L44.7133351,39.206875 C44.7893634,39.2829032 44.8924798,39.3256155 45,39.3256155 C45.2238992,39.3256155 45.4054054,39.1441093 45.4054054,38.9202101 L45.4054054,15.4054054 C45.4054054,14.957607 45.0423931,14.5945946 44.5945946,14.5945946 L21.0797899,14.5945946 Z" id="full-path" fill="#FFFFFF"></path>
            <path d="M15.4054054,45.4054054 L38.9202101,45.4054054 C39.0277304,45.4054054 39.1308467,45.3626932 39.206875,45.2866649 C39.3651957,45.1283442 39.3651957,44.8716558 39.206875,44.7133351 L15.2866649,20.793125 C15.2106366,20.7170968 15.1075202,20.6743845 15,20.6743845 C14.7761008,20.6743845 14.5945946,20.8558907 14.5945946,21.0797899 L14.5945946,44.5945946 C14.5945946,45.0423931 14.957607,45.4054054 15.4054054,45.4054054 Z" id="full-path" fill="#FFFFFF"></path>
        </g>
    </g>
</svg>