<svg width="57" height="55" viewBox="0 0 57 55" version="1.1" xmlns="http://www.w3.org/2000/svg" xmlns:xlink="http://www.w3.org/1999/xlink"><title>search-disabled</title><desc>Created with Sketch.</desc><g id="search" stroke="none" stroke-width="1" fill="none" fill-rule="evenodd" transform="translate(-120.000000, -1.000000)"><g id="search-disabled" transform="translate(120.000000, 1.000000)" fill="#DDD" fill-rule="nonzero"><path d="M37.1353778,22.33672 C37.1353778,15.108234 30.9210568,9.16560889 23.1491556,9.16560889 C15.3865877,9.16560889 9.16915556,15.1112091 9.16915556,22.33672 C9.16915556,29.5567143 15.387362,35.5016089 23.1491556,35.5016089 C30.9202825,35.5016089 37.1353778,29.5596887 37.1353778,22.33672 Z M42.3065501,34.5941842 L55.1800255,46.6074274 C56.9970444,48.3030293 57.0954723,51.1505711 55.3998704,52.96759 C53.7042685,54.7846089 50.8567267,54.8830368 49.0397078,53.1874348 L35.80836,40.840233 C32.1732901,43.1559473 27.8192834,44.5016089 23.1491556,44.5016089 C10.505042,44.5016089 0.169155556,34.6200208 0.169155556,22.33672 C0.169155556,10.0484159 10.503803,0.165608889 23.1491556,0.165608889 C35.8038415,0.165608889 46.1353778,10.0454408 46.1353778,22.33672 C46.1353778,26.8770073 44.7243253,31.0885023 42.3065501,34.5941842 Z" id="Stroke-1"/></g></g></svg>