<svg width="110" height="110" viewBox="0 0 110 110" version="1.1" xmlns="http://www.w3.org/2000/svg" xmlns:xlink="http://www.w3.org/1999/xlink"><title>check-checked</title><desc>Created with Sketch.</desc><g id="Page-1" stroke="none" stroke-width="1" fill="none" fill-rule="evenodd"><g id="check-checked"><path d="M20,0 L90,0 C101.045695,-2.02906125e-15 110,8.954305 110,20 L110,90 C110,101.045695 101.045695,110 90,110 L20,110 C8.954305,110 1.3527075e-15,101.045695 0,90 L0,20 C-1.3527075e-15,8.954305 8.954305,2.02906125e-15 20,0 Z" id="Rectangle-2" fill="#444"/><g id="Group" transform="translate(22.000000, 21.000000)" fill="#FFF"><rect id="Rectangle" transform="translate(34.000000, 34.000000) rotate(-45.000000) translate(-34.000000, -34.000000)" x="-7" y="28" width="82" height="12" rx="6"/><rect id="Rectangle" transform="translate(34.000000, 34.000000) scale(-1, 1) rotate(135.000000) translate(-34.000000, -34.000000)" x="-7" y="28" width="82" height="12" rx="6"/></g></g></g></svg>