<?xml version="1.0" encoding="UTF-8"?>
<svg width="800px" height="800px" viewBox="0 0 800 800" version="1.1" xmlns="http://www.w3.org/2000/svg" xmlns:xlink="http://www.w3.org/1999/xlink">

  <view id="tag" viewBox="0 0 60 60" />
  <view id="check" viewBox="60 0 110 110" />
  <view id="check-checked" viewBox="180 0 110 110" />
  <view id="check-checked-active" viewBox="300 0 110 110" />
  <view id="check-active" viewBox="420 0 110 110" />

  <view id="radio" viewBox="60 120 110 110" />
  <view id="radio-checked" viewBox="180 120 110 110" />
  <view id="radio-active" viewBox="420 120 110 110" />
  <view id="radio-checked-active" viewBox="300 120 110 110" />

  <g id="g-tag">
    <path d="M29.328239,59.6433171 L0.751268688,31.0599083 C0.275595687,30.5782339 -0.0537163911,29.645371 0.00726732698,28.9807823 L2.42222256,3.75689957 C2.48930465,3.09231092 3.08694509,2.48869371 3.75776599,2.42772228 L28.9745334,0.00715629901 C29.6453543,-0.0538151362 30.5784052,0.281527758 31.0540782,0.757104952 L59.6432452,29.3344166 C60.1189183,29.8099938 60.1189183,30.5843311 59.6432452,31.0599083 L31.0540782,59.6433171 C30.5784052,60.1188943 29.803912,60.1188943 29.328239,59.6433171 Z M27.502576,27.506491 C31.2887149,23.7336491 31.2887149,17.5918134 27.502576,13.8064372 C23.7164372,10.0085265 17.5733642,10.0210609 13.7997623,13.8064372 C10.0136234,17.5792791 10.0010865,23.7211147 13.7997623,27.506491 C17.5859011,31.3044016 23.7289741,31.2918673 27.502576,27.506491 Z" id="tag" fill="#000000"></path>
  </g>>
  <g id="g-check" transform="translate(60.000000, 0.000000)" fill="#444444" fill-rule="nonzero">
    <path d="M20,0 L90,0 C101.045695,-2.02906125e-15 110,8.954305 110,20 L110,90 C110,101.045695 101.045695,110 90,110 L20,110 C8.954305,110 1.3527075e-15,101.045695 0,90 L0,20 C-1.3527075e-15,8.954305 8.954305,2.02906125e-15 20,0 Z M25,15 C19.4771525,15 15,19.4771525 15,25 L15,85 C15,90.5228475 19.4771525,95 25,95 L85,95 C90.5228475,95 95,90.5228475 95,85 L95,25 C95,19.4771525 90.5228475,15 85,15 L25,15 Z" id="Rectangle-2"></path>
  </g>
  <g id="g-check-checked" transform="translate(180.000000, 0.000000)" fill-rule="nonzero">
    <path d="M20,0 L90,0 C101.045695,-2.02906125e-15 110,8.954305 110,20 L110,90 C110,101.045695 101.045695,110 90,110 L20,110 C8.954305,110 1.3527075e-15,101.045695 0,90 L0,20 C-1.3527075e-15,8.954305 8.954305,2.02906125e-15 20,0 Z" id="Rectangle-2" fill="#444444"></path>
    <g id="Group" transform="translate(22.000000, 21.000000)" fill="#FFFFFF">
      <rect id="Rectangle" transform="translate(34.000000, 34.000000) rotate(-45.000000) translate(-34.000000, -34.000000) " x="-7" y="28" width="82" height="12" rx="6"></rect>
      <rect id="Rectangle" transform="translate(34.000000, 34.000000) scale(-1, 1) rotate(135.000000) translate(-34.000000, -34.000000) " x="-7" y="28" width="82" height="12" rx="6"></rect>
    </g>
  </g>
  <g id="g-check-checked-active" transform="translate(300.000000, 0.000000)" fill="#000000" fill-rule="nonzero">
    <path d="M20,0 L90,0 C101.045695,-2.02906125e-15 110,8.954305 110,20 L110,90 C110,101.045695 101.045695,110 90,110 L20,110 C8.954305,110 1.3527075e-15,101.045695 0,90 L0,20 C-1.3527075e-15,8.954305 8.954305,2.02906125e-15 20,0 Z M25,15 C19.4771525,15 15,19.4771525 15,25 L15,85 C15,90.5228475 19.4771525,95 25,95 L85,95 C90.5228475,95 95,90.5228475 95,85 L95,25 C95,19.4771525 90.5228475,15 85,15 L25,15 Z" id="Rectangle-2"></path>
    <g id="Group" transform="translate(22.000000, 22.000000)">
      <rect id="Rectangle" transform="translate(33.000000, 33.000000) rotate(-45.000000) translate(-33.000000, -33.000000) " x="-7" y="27" width="80" height="12" rx="6"></rect>
      <rect id="Rectangle" transform="translate(33.000000, 33.000000) scale(-1, 1) rotate(135.000000) translate(-33.000000, -33.000000) " x="-7" y="27" width="80" height="12" rx="6"></rect>
    </g>
  </g>
  <g id="g-check-active" transform="translate(420.000000, 0.000000)" fill="#444444" fill-rule="nonzero">
    <path d="M20,0 L90,0 C101.045695,-2.02906125e-15 110,8.954305 110,20 L110,90 C110,101.045695 101.045695,110 90,110 L20,110 C8.954305,110 1.3527075e-15,101.045695 0,90 L0,20 C-1.3527075e-15,8.954305 8.954305,2.02906125e-15 20,0 Z M25,15 C19.4771525,15 15,19.4771525 15,25 L15,85 C15,90.5228475 19.4771525,95 25,95 L85,95 C90.5228475,95 95,90.5228475 95,85 L95,25 C95,19.4771525 90.5228475,15 85,15 L25,15 Z" id="Rectangle-2"></path>
    <g id="Group" transform="translate(22.000000, 22.000000)">
      <rect id="Rectangle" transform="translate(33.000000, 33.000000) rotate(-45.000000) translate(-33.000000, -33.000000) " x="-7" y="27" width="80" height="12" rx="6"></rect>
      <rect id="Rectangle" transform="translate(33.000000, 33.000000) scale(-1, 1) rotate(135.000000) translate(-33.000000, -33.000000) " x="-7" y="27" width="80" height="12" rx="6"></rect>
    </g>
  </g>

  <g id="g-radio" transform="translate(60.000000, 120.000000)" fill="#444444" fill-rule="nonzero">
    <path d="M55,110 C24.6243388,110 0,85.3756612 0,55 C0,24.6243388 24.6243388,0 55,0 C85.3756612,0 110,24.6243388 110,55 C110,85.3756612 85.3756612,110 55,110 Z M55,95 C77.09139,95 95,77.09139 95,55 C95,32.90861 77.09139,15 55,15 C32.90861,15 15,32.90861 15,55 C15,77.09139 32.90861,95 55,95 Z" id="Oval"></path>
  </g>
  <g id="g-radio-checked" transform="translate(180.000000, 120.000000)" fill="#444444" fill-rule="nonzero">
    <path d="M55,110 C24.6243388,110 0,85.3756612 0,55 C0,24.6243388 24.6243388,0 55,0 C85.3756612,0 110,24.6243388 110,55 C110,85.3756612 85.3756612,110 55,110 Z M55,72 C64.3888407,72 72,64.3888407 72,55 C72,45.6111593 64.3888407,38 55,38 C45.6111593,38 38,45.6111593 38,55 C38,64.3888407 45.6111593,72 55,72 Z" id="Oval"></path>
  </g>
  <g id="g-radio-checked-active" transform="translate(300.000000, 120.000000)" fill="#000000" fill-rule="nonzero">
    <path d="M55,110 C24.6243388,110 0,85.3756612 0,55 C0,24.6243388 24.6243388,0 55,0 C85.3756612,0 110,24.6243388 110,55 C110,85.3756612 85.3756612,110 55,110 Z M55,72 C64.3888407,72 72,64.3888407 72,55 C72,45.6111593 64.3888407,38 55,38 C45.6111593,38 38,45.6111593 38,55 C38,64.3888407 45.6111593,72 55,72 Z" id="Oval"></path>
  </g>
  <g id="g-radio-active" transform="translate(420.000000, 120.000000)" fill="#444444">
    <path d="M55,110 C24.6243388,110 0,85.3756612 0,55 C0,24.6243388 24.6243388,0 55,0 C85.3756612,0 110,24.6243388 110,55 C110,85.3756612 85.3756612,110 55,110 Z M55,95 C77.09139,95 95,77.09139 95,55 C95,32.90861 77.09139,15 55,15 C32.90861,15 15,32.90861 15,55 C15,77.09139 32.90861,95 55,95 Z" id="Oval" fill-rule="nonzero"></path>
    <path d="M55,72 C64.3888407,72 72,64.3888407 72,55 C72,45.6111593 64.3888407,38 55,38 C45.6111593,38 38,45.6111593 38,55 C38,64.3888407 45.6111593,72 55,72 Z" id="Path"></path>
  </g>

</svg>
