<?xml version="1.0" encoding="UTF-8"?>
<svg width="800px" height="800px" viewBox="0 0 800 800" version="1.1" xmlns="http://www.w3.org/2000/svg" xmlns:xlink="http://www.w3.org/1999/xlink">

  <view id="tag" viewBox="0 0 60 60" />

  <!-- checkbox -->
  <view id="check" viewBox="60 0 110 110" />
  <view id="check-checked" viewBox="180 0 110 110" />
  <view id="check-checked-active" viewBox="300 0 110 110" />
  <view id="check-active" viewBox="420 0 110 110" />

  <!-- radio -->
  <view id="radio" viewBox="60 120 110 110" />
  <view id="radio-checked" viewBox="180 120 110 110" />
  <view id="radio-active" viewBox="420 120 110 110" />
  <view id="radio-checked-active" viewBox="300 120 110 110" />

  <!-- select -->
  <view id="select-dropdown" viewBox="60 240 136 101" />
  <view id="select-dropdown-hover" viewBox="210 240 136 101" />
  <view id="select-dropdown-disabled" viewBox="360 240 136 101" />

  <!-- search -->
  <view id="search" viewBox="540 0 57 55" />
  <view id="search-hover" viewBox="600 0 57 55" />
  <view id="search-disabled" viewBox="660 0 57 55" />

  <!-- miscellaneous -->
  <view id="fullscreen" viewBox="0 70 60 60" />

  <!-- miscellanous -->
  <g id="g-tag">
    <path d="M29.328239,59.6433171 L0.751268688,31.0599083 C0.275595687,30.5782339 -0.0537163911,29.645371 0.00726732698,28.9807823 L2.42222256,3.75689957 C2.48930465,3.09231092 3.08694509,2.48869371 3.75776599,2.42772228 L28.9745334,0.00715629901 C29.6453543,-0.0538151362 30.5784052,0.281527758 31.0540782,0.757104952 L59.6432452,29.3344166 C60.1189183,29.8099938 60.1189183,30.5843311 59.6432452,31.0599083 L31.0540782,59.6433171 C30.5784052,60.1188943 29.803912,60.1188943 29.328239,59.6433171 Z M27.502576,27.506491 C31.2887149,23.7336491 31.2887149,17.5918134 27.502576,13.8064372 C23.7164372,10.0085265 17.5733642,10.0210609 13.7997623,13.8064372 C10.0136234,17.5792791 10.0010865,23.7211147 13.7997623,27.506491 C17.5859011,31.3044016 23.7289741,31.2918673 27.502576,27.506491 Z" id="tag" fill="#000000"></path>
  </g>>
  <g id="g-fullscreen" transform="translate(0.000000, 70.000000)">
    <path d="M30,60 C13.4314575,60 0,46.5685425 0,30 C0,13.4314575 13.4314575,0 30,0 C46.5685425,0 60,13.4314575 60,30 C60,46.5685425 46.5685425,60 30,60 Z" id="full" fill="#4A4A4A" fill-rule="nonzero"></path>
    <path d="M21.0797899,14.5945946 C20.9722696,14.5945946 20.8691533,14.6373068 20.793125,14.7133351 C20.6348043,14.8716558 20.6348043,15.1283442 20.793125,15.2866649 L44.7133351,39.206875 C44.7893634,39.2829032 44.8924798,39.3256155 45,39.3256155 C45.2238992,39.3256155 45.4054054,39.1441093 45.4054054,38.9202101 L45.4054054,15.4054054 C45.4054054,14.957607 45.0423931,14.5945946 44.5945946,14.5945946 L21.0797899,14.5945946 Z" fill="#FFFFFF"></path>
    <path d="M15.4054054,45.4054054 L38.9202101,45.4054054 C39.0277304,45.4054054 39.1308467,45.3626932 39.206875,45.2866649 C39.3651957,45.1283442 39.3651957,44.8716558 39.206875,44.7133351 L15.2866649,20.793125 C15.2106366,20.7170968 15.1075202,20.6743845 15,20.6743845 C14.7761008,20.6743845 14.5945946,20.8558907 14.5945946,21.0797899 L14.5945946,44.5945946 C14.5945946,45.0423931 14.957607,45.4054054 15.4054054,45.4054054 Z" fill="#FFFFFF"></path>
  </g>

  <!-- checkbox -->
  <g id="g-check" transform="translate(60.000000, 0.000000)" fill="#444444" fill-rule="nonzero">
    <path d="M20,0 L90,0 C101.045695,-2.02906125e-15 110,8.954305 110,20 L110,90 C110,101.045695 101.045695,110 90,110 L20,110 C8.954305,110 1.3527075e-15,101.045695 0,90 L0,20 C-1.3527075e-15,8.954305 8.954305,2.02906125e-15 20,0 Z M25,15 C19.4771525,15 15,19.4771525 15,25 L15,85 C15,90.5228475 19.4771525,95 25,95 L85,95 C90.5228475,95 95,90.5228475 95,85 L95,25 C95,19.4771525 90.5228475,15 85,15 L25,15 Z"></path>
  </g>
  <g id="g-check-checked" transform="translate(180.000000, 0.000000)" fill-rule="nonzero">
    <path d="M90,0 C101.045695,0 110,8.954305 110,20 L110,90 C110,101.045695 101.045695,110 90,110 L20,110 C8.954305,110 0,101.045695 0,90 L0,20 C0,8.954305 8.954305,0 20,0 L90,0 Z M27.008622,26.008622 C24.6654762,28.3517677 24.6654762,32.1507576 27.008622,34.4939033 L47.515,55 L27.008622,75.5060967 C24.7255569,77.7891617 24.6670168,81.4543694 26.8330016,83.8083136 L27.008622,83.991378 C29.3517677,86.3345238 33.1507576,86.3345238 35.4939033,83.991378 L35.4939033,83.991378 L56,63.485 L76.5060967,83.991378 C78.8492424,86.3345238 82.6482323,86.3345238 84.991378,83.991378 C87.3345238,81.6482323 87.3345238,77.8492424 84.991378,75.5060967 L64.485,55 L84.991378,34.4939033 C87.2744431,32.2108383 87.3329832,28.5456306 85.1669984,26.1916864 L84.991378,26.008622 C82.6482323,23.6654762 78.8492424,23.6654762 76.5060967,26.008622 L76.5060967,26.008622 L56,46.515 L35.4939033,26.008622 C33.1507576,23.6654762 29.3517677,23.6654762 27.008622,26.008622 Z" fill="#444444" fill-rule="nonzero"></path>
  </g>
  <g id="g-check-checked-active" transform="translate(300.000000, 0.000000)" fill="#000000" fill-rule="nonzero">
    <path d="M20,0 L90,0 C101.045695,-2.02906125e-15 110,8.954305 110,20 L110,90 C110,101.045695 101.045695,110 90,110 L20,110 C8.954305,110 1.3527075e-15,101.045695 0,90 L0,20 C-1.3527075e-15,8.954305 8.954305,2.02906125e-15 20,0 Z M25,15 C19.4771525,15 15,19.4771525 15,25 L15,85 C15,90.5228475 19.4771525,95 25,95 L85,95 C90.5228475,95 95,90.5228475 95,85 L95,25 C95,19.4771525 90.5228475,15 85,15 L25,15 Z"></path>
    <g transform="translate(22.000000, 22.000000)">
      <rect transform="translate(33.000000, 33.000000) rotate(-45.000000) translate(-33.000000, -33.000000) " x="-7" y="27" width="80" height="12" rx="6"></rect>
      <rect transform="translate(33.000000, 33.000000) scale(-1, 1) rotate(135.000000) translate(-33.000000, -33.000000) " x="-7" y="27" width="80" height="12" rx="6"></rect>
    </g>
  </g>
  <g id="g-check-active" transform="translate(420.000000, 0.000000)" fill="#444444" fill-rule="nonzero">
    <path d="M20,0 L90,0 C101.045695,-2.02906125e-15 110,8.954305 110,20 L110,90 C110,101.045695 101.045695,110 90,110 L20,110 C8.954305,110 1.3527075e-15,101.045695 0,90 L0,20 C-1.3527075e-15,8.954305 8.954305,2.02906125e-15 20,0 Z M25,15 C19.4771525,15 15,19.4771525 15,25 L15,85 C15,90.5228475 19.4771525,95 25,95 L85,95 C90.5228475,95 95,90.5228475 95,85 L95,25 C95,19.4771525 90.5228475,15 85,15 L25,15 Z"></path>
    <g transform="translate(22.000000, 22.000000)">
      <rect transform="translate(33.000000, 33.000000) rotate(-45.000000) translate(-33.000000, -33.000000) " x="-7" y="27" width="80" height="12" rx="6"></rect>
      <rect transform="translate(33.000000, 33.000000) scale(-1, 1) rotate(135.000000) translate(-33.000000, -33.000000) " x="-7" y="27" width="80" height="12" rx="6"></rect>
    </g>
  </g>

  <!-- radio -->
  <g id="g-radio" transform="translate(60.000000, 120.000000)" fill="#444444" fill-rule="nonzero">
    <path d="M55,110 C24.6243388,110 0,85.3756612 0,55 C0,24.6243388 24.6243388,0 55,0 C85.3756612,0 110,24.6243388 110,55 C110,85.3756612 85.3756612,110 55,110 Z M55,95 C77.09139,95 95,77.09139 95,55 C95,32.90861 77.09139,15 55,15 C32.90861,15 15,32.90861 15,55 C15,77.09139 32.90861,95 55,95 Z"></path>
  </g>
  <g id="g-radio-checked" transform="translate(180.000000, 120.000000)" fill="#444444" fill-rule="nonzero">
    <path d="M55,110 C24.6243388,110 0,85.3756612 0,55 C0,24.6243388 24.6243388,0 55,0 C85.3756612,0 110,24.6243388 110,55 C110,85.3756612 85.3756612,110 55,110 Z M55,72 C64.3888407,72 72,64.3888407 72,55 C72,45.6111593 64.3888407,38 55,38 C45.6111593,38 38,45.6111593 38,55 C38,64.3888407 45.6111593,72 55,72 Z"></path>
  </g>
  <g id="g-radio-checked-active" transform="translate(300.000000, 120.000000)" fill="#000000" fill-rule="nonzero">
    <path d="M55,110 C24.6243388,110 0,85.3756612 0,55 C0,24.6243388 24.6243388,0 55,0 C85.3756612,0 110,24.6243388 110,55 C110,85.3756612 85.3756612,110 55,110 Z M55,72 C64.3888407,72 72,64.3888407 72,55 C72,45.6111593 64.3888407,38 55,38 C45.6111593,38 38,45.6111593 38,55 C38,64.3888407 45.6111593,72 55,72 Z"></path>
  </g>
  <g id="g-radio-active" transform="translate(420.000000, 120.000000)" fill="#444444">
    <path d="M55,110 C24.6243388,110 0,85.3756612 0,55 C0,24.6243388 24.6243388,0 55,0 C85.3756612,0 110,24.6243388 110,55 C110,85.3756612 85.3756612,110 55,110 Z M55,95 C77.09139,95 95,77.09139 95,55 C95,32.90861 77.09139,15 55,15 C32.90861,15 15,32.90861 15,55 C15,77.09139 32.90861,95 55,95 Z" fill-rule="nonzero"></path>
    <path d="M55,72 C64.3888407,72 72,64.3888407 72,55 C72,45.6111593 64.3888407,38 55,38 C45.6111593,38 38,45.6111593 38,55 C38,64.3888407 45.6111593,72 55,72 Z" "></path>
  </g>

  <!-- select -->
  <g id="g-select-dropdown" transform="translate(60.000000, 240.000000)" fill="#666666">
    <path d="M74.0702901,3.37992429 L133.609964,87.5292731 C136.161918,91.1360323 135.306829,96.1286557 131.70007,98.6806096 C130.34892,99.6366129 128.734507,100.149995 127.079349,100.149995 L8.000001,100.149995 C3.581723,100.149995 9.95808251e-07,96.5682725 9.9580825e-07,92.1499945 C9.9580825e-07,90.494836 0.513382591,88.8804235 1.46938587,87.5292731 L61.0090598,3.37992429 C63.5610138,-0.226834851 68.5536372,-1.08192341 72.1603963,1.47003055 C72.9006742,1.99381238 73.5465082,2.63964647 74.0702901,3.37992429 Z" transform="translate(67.540001, 50.074997) rotate(180.000000) translate(-67.540001, -50.074997) "></path>
  </g>
  <g id="g-select-dropdown-hover" transform="translate(210.000000, 240.000000)" fill="#4C4C4C">
    <path d="M74.0702901,3.37992429 L133.609964,87.5292731 C136.161918,91.1360323 135.306829,96.1286557 131.70007,98.6806096 C130.34892,99.6366129 128.734507,100.149995 127.079349,100.149995 L8.000001,100.149995 C3.581723,100.149995 9.95808279e-07,96.5682725 9.95808279e-07,92.1499945 C9.95808279e-07,90.494836 0.513382591,88.8804235 1.46938587,87.5292731 L61.0090598,3.37992429 C63.5610138,-0.226834851 68.5536372,-1.08192341 72.1603963,1.47003055 C72.9006742,1.99381238 73.5465082,2.63964647 74.0702901,3.37992429 Z" transform="translate(67.540001, 50.074997) rotate(180.000000) translate(-67.540001, -50.074997) "></path>
  </g>
  <g id="g-select-dropdown-disabled" transform="translate(360.000000, 240.000000)" fill="#CCCCCC">
    <path d="M74.0702901,3.37992429 L133.609964,87.5292731 C136.161918,91.1360323 135.306829,96.1286557 131.70007,98.6806096 C130.34892,99.6366129 128.734507,100.149995 127.079349,100.149995 L8.000001,100.149995 C3.581723,100.149995 9.95808279e-07,96.5682725 9.95808279e-07,92.1499945 C9.95808279e-07,90.494836 0.513382591,88.8804235 1.46938587,87.5292731 L61.0090598,3.37992429 C63.5610138,-0.226834851 68.5536372,-1.08192341 72.1603963,1.47003055 C72.9006742,1.99381238 73.5465082,2.63964647 74.0702901,3.37992429 Z" transform="translate(67.540001, 50.074997) rotate(180.000000) translate(-67.540001, -50.074997) "></path>
  </g>

  <!-- search -->
  <g id="g-search" transform="translate(540.000000, 0.000000)" fill="#CCCCCC" fill-rule="nonzero">
    <path d="M37.1353778,22.33672 C37.1353778,15.108234 30.9210568,9.16560889 23.1491556,9.16560889 C15.3865877,9.16560889 9.16915556,15.1112091 9.16915556,22.33672 C9.16915556,29.5567143 15.387362,35.5016089 23.1491556,35.5016089 C30.9202825,35.5016089 37.1353778,29.5596887 37.1353778,22.33672 Z M42.3065501,34.5941842 L55.1800255,46.6074274 C56.9970444,48.3030293 57.0954723,51.1505711 55.3998704,52.96759 C53.7042685,54.7846089 50.8567267,54.8830368 49.0397078,53.1874348 L35.80836,40.840233 C32.1732901,43.1559473 27.8192834,44.5016089 23.1491556,44.5016089 C10.505042,44.5016089 0.169155556,34.6200208 0.169155556,22.33672 C0.169155556,10.0484159 10.503803,0.165608889 23.1491556,0.165608889 C35.8038415,0.165608889 46.1353778,10.0454408 46.1353778,22.33672 C46.1353778,26.8770073 44.7243253,31.0885023 42.3065501,34.5941842 Z"></path>
  </g>
  <g id="g-search-hover" transform="translate(600.000000, 0.000000)" fill="#666666" fill-rule="nonzero">
    <path d="M37.1353778,22.33672 C37.1353778,15.108234 30.9210568,9.16560889 23.1491556,9.16560889 C15.3865877,9.16560889 9.16915556,15.1112091 9.16915556,22.33672 C9.16915556,29.5567143 15.387362,35.5016089 23.1491556,35.5016089 C30.9202825,35.5016089 37.1353778,29.5596887 37.1353778,22.33672 Z M42.3065501,34.5941842 L55.1800255,46.6074274 C56.9970444,48.3030293 57.0954723,51.1505711 55.3998704,52.96759 C53.7042685,54.7846089 50.8567267,54.8830368 49.0397078,53.1874348 L35.80836,40.840233 C32.1732901,43.1559473 27.8192834,44.5016089 23.1491556,44.5016089 C10.505042,44.5016089 0.169155556,34.6200208 0.169155556,22.33672 C0.169155556,10.0484159 10.503803,0.165608889 23.1491556,0.165608889 C35.8038415,0.165608889 46.1353778,10.0454408 46.1353778,22.33672 C46.1353778,26.8770073 44.7243253,31.0885023 42.3065501,34.5941842 Z"></path>
  </g>
  <g id="g-search-disabled" transform="translate(660.000000, 0.000000)" fill="#DDDDDD" fill-rule="nonzero">
    <path d="M37.1353778,22.33672 C37.1353778,15.108234 30.9210568,9.16560889 23.1491556,9.16560889 C15.3865877,9.16560889 9.16915556,15.1112091 9.16915556,22.33672 C9.16915556,29.5567143 15.387362,35.5016089 23.1491556,35.5016089 C30.9202825,35.5016089 37.1353778,29.5596887 37.1353778,22.33672 Z M42.3065501,34.5941842 L55.1800255,46.6074274 C56.9970444,48.3030293 57.0954723,51.1505711 55.3998704,52.96759 C53.7042685,54.7846089 50.8567267,54.8830368 49.0397078,53.1874348 L35.80836,40.840233 C32.1732901,43.1559473 27.8192834,44.5016089 23.1491556,44.5016089 C10.505042,44.5016089 0.169155556,34.6200208 0.169155556,22.33672 C0.169155556,10.0484159 10.503803,0.165608889 23.1491556,0.165608889 C35.8038415,0.165608889 46.1353778,10.0454408 46.1353778,22.33672 C46.1353778,26.8770073 44.7243253,31.0885023 42.3065501,34.5941842 Z"></path>
  </g>

</svg>
