<svg width="110" height="110" viewBox="0 0 110 110" version="1.1" xmlns="http://www.w3.org/2000/svg" xmlns:xlink="http://www.w3.org/1999/xlink"><title>radio-active</title><desc>Created with Sketch.</desc><g id="Page-1" stroke="none" stroke-width="1" fill="none" fill-rule="evenodd"><g id="radio-active" fill="#444"><path d="M55,110 C24.6243388,110 0,85.3756612 0,55 C0,24.6243388 24.6243388,0 55,0 C85.3756612,0 110,24.6243388 110,55 C110,85.3756612 85.3756612,110 55,110 Z M55,95 C77.09139,95 95,77.09139 95,55 C95,32.90861 77.09139,15 55,15 C32.90861,15 15,32.90861 15,55 C15,77.09139 32.90861,95 55,95 Z" id="Oval" fill-rule="nonzero"/><path d="M55,72 C64.3888407,72 72,64.3888407 72,55 C72,45.6111593 64.3888407,38 55,38 C45.6111593,38 38,45.6111593 38,55 C38,64.3888407 45.6111593,72 55,72 Z" id="Path"/></g></g></svg>