<svg width="56" height="56" viewBox="0 0 56 56" version="1.1" xmlns="http://www.w3.org/2000/svg" xmlns:xlink="http://www.w3.org/1999/xlink"><title>Fill 1</title><desc>Created with Sketch.</desc><g id="Page-1" stroke="none" stroke-width="1" fill="none" fill-rule="evenodd"><path d="M27.0517032,55.0247271 L0.692953218,28.6547271 C0.254203218,28.2103521 -0.0495467822,27.3497271 0.00670321776,26.7366021 L2.23420322,3.46597714 C2.29607822,2.85285214 2.84732822,2.29597714 3.46607822,2.23972714 L26.7254532,0.00660213783 C27.3442032,-0.0496478622 28.2048282,0.259727138 28.6435782,0.698477138 L55.0135782,27.0628521 C55.4523282,27.5016021 55.4523282,28.2159771 55.0135782,28.6547271 L28.6435782,55.0247271 C28.2048282,55.4634771 27.4904532,55.4634771 27.0517032,55.0247271 Z M25.3677531,25.3764753 C28.8600018,21.8957903 28.8600018,16.229559 25.3677531,12.7373103 C21.8755044,9.23349787 16.2092731,9.2450616 12.7285881,12.7373103 C9.2363394,16.2179953 9.22477566,21.8842266 12.7285881,25.3764753 C16.2208368,28.8802877 21.8870681,28.868724 25.3677531,25.3764753 Z" id="Fill-1" fill="#000"/></g></svg>